<?xml version="1.0" encoding="UTF-8" standalone="no"?>
<!-- Created with Inkscape (http://www.inkscape.org/) -->

<svg
   xmlns:dc="http://purl.org/dc/elements/1.1/"
   xmlns:cc="http://creativecommons.org/ns#"
   xmlns:rdf="http://www.w3.org/1999/02/22-rdf-syntax-ns#"
   xmlns:svg="http://www.w3.org/2000/svg"
   xmlns="http://www.w3.org/2000/svg"
   xmlns:sodipodi="http://sodipodi.sourceforge.net/DTD/sodipodi-0.dtd"
   xmlns:inkscape="http://www.inkscape.org/namespaces/inkscape"
   width="744.09448819"
   height="1052.3622047"
   id="svg2"
   version="1.1"
   inkscape:version="0.48.3.1 r9886"
   sodipodi:docname="New document 1">
  <defs
     id="defs4" />
  <sodipodi:namedview
     id="base"
     pagecolor="#ffffff"
     bordercolor="#666666"
     borderopacity="1.0"
     inkscape:pageopacity="0.0"
     inkscape:pageshadow="2"
     inkscape:zoom="5.1898437"
     inkscape:cx="506.05761"
     inkscape:cy="685.44055"
     inkscape:document-units="px"
     inkscape:current-layer="layer1"
     showgrid="false"
     showguides="true"
     inkscape:guide-bbox="true"
     inkscape:object-nodes="true"
     inkscape:snap-smooth-nodes="true"
     inkscape:snap-bbox="true"
     inkscape:bbox-nodes="false"
     inkscape:snap-bbox-edge-midpoints="true"
     inkscape:snap-bbox-midpoints="false"
     inkscape:bbox-paths="false"
     inkscape:snap-nodes="true"
     inkscape:window-width="1855"
     inkscape:window-height="1056"
     inkscape:window-x="65"
     inkscape:window-y="24"
     inkscape:window-maximized="1">
    <sodipodi:guide
       orientation="1,0"
       position="142.58618,912.55156"
       id="guide2991" />
    <sodipodi:guide
       orientation="0,1"
       position="142.58618,912.55156"
       id="guide2993" />
    <sodipodi:guide
       orientation="1,0"
       position="139.55141,912.55156"
       id="guide2995" />
    <sodipodi:guide
       orientation="0,1"
       position="139.55141,907.97531"
       id="guide2997" />
    <sodipodi:guide
       orientation="0,1"
       position="134.30077,903.30272"
       id="guide2999" />
    <sodipodi:guide
       orientation="1,0"
       position="134.83065,912.55156"
       id="guide3001" />
    <sodipodi:guide
       orientation="0,1"
       position="139.50324,957.4469"
       id="guide3003" />
    <sodipodi:guide
       orientation="0,1"
       position="134.83065,910.8191"
       id="guide3025" />
  </sodipodi:namedview>
  <metadata
     id="metadata7">
    <rdf:RDF>
      <cc:Work
         rdf:about="">
        <dc:format>image/svg+xml</dc:format>
        <dc:type
           rdf:resource="http://purl.org/dc/dcmitype/StillImage" />
        <dc:title></dc:title>
      </cc:Work>
    </rdf:RDF>
  </metadata>
  <g
     inkscape:label="Layer 1"
     inkscape:groupmode="layer"
     id="layer1">
    <g
       style="font-size:40px;font-style:normal;font-variant:normal;font-weight:normal;font-stretch:normal;text-align:start;line-height:125%;letter-spacing:0px;word-spacing:0px;writing-mode:lr-tb;text-anchor:start;fill:#000000;fill-opacity:1;stroke:none;font-family:LMMonoCaps10;-inkscape-font-specification:LMMonoCaps10"
       id="text2985">
      <path
         d="m 407.4583,381.65795 c 0,-3.71999 -2.96,-7.32 -7.56,-7.32 l -8.96,0 c -0.6,0 -1.64,1e-5 -1.64,1.2 0,1.24 1.04,1.24 1.64,1.24 l 1.2,0 0,19.56 -1.2,0 c -0.64,0 -1.64,1e-5 -1.64,1.24 0,1.2 1.04,1.2 1.64,1.2 l 5.16,0 c 0.6,0 1.64,0 1.64,-1.2 0,-1.23999 -1.04,-1.24 -1.64,-1.24 l -1.2,0 0,-7.36 5,0 c 4.64,0 7.56,-3.6 7.56,-7.32 m -2.76,0 c 0,2.12 -1.72,4.88 -5.56,4.88 l -4.24,0 0,-9.76 4.24,0 c 3.84,0 5.56,2.76001 5.56,4.88"
         style=""
         id="path3835" />
      <path
         d="m 427.79393,395.61795 c 0,-0.72 -0.40001,-1.28 -1.4,-1.28 -0.8,0 -1.32,0.4 -1.36,1.2 -0.04,0.76 -0.36,1.12 -0.72,1.12 -1,0 -1,-1.32 -1,-2.68 0,-2.03999 -1e-5,-3.32 -1.72,-4.6 0.68,-0.4 2.76,-1.84 2.76,-4.16 0,-2.67999 -2.92001,-5.32 -7.48,-5.32 l -6.2,0 c -0.56,0 -1.68,1e-5 -1.68,1.2 0,1.24 1,1.24 1.92,1.24 l 0,14 c -0.92,0 -1.92,1e-5 -1.92,1.24 0,1.2 1.12,1.2 1.68,1.2 l 3.24,0 c 0.56,0 1.68,0 1.68,-1.2 0,-1.23999 -1.00001,-1.24 -1.92,-1.24 l 0,-5.8 3.04,0 c 3.83999,0 3.84,1.8 3.84,2.56 l 0,1.56 c 0,3.76 2.56,4.44 3.76,4.44 2.23999,0 3.48,-1.92 3.48,-3.48 m -6.2,-10.4 c 0,1.44 -1.92001,2.88 -5.08,2.88 l -2.84,0 0,-5.76 2.84,0 c 3.15999,0 5.08,1.44001 5.08,2.88"
         id="path3837"
         inkscape:connector-curvature="0" />
      <path
         d="m 440.44392,397.7142 c 0,-1.23999 -1.12,-1.24 -1.68,-1.24 l -2.72,0 0,-14 2.72,0 c 0.52,0 1.68,0 1.68,-1.2 0,-1.23999 -1.12,-1.24 -1.68,-1.24 l -8.2,0 c -0.56,0 -1.68,10e-6 -1.68,1.24 0,1.2 1.16,1.2 1.68,1.2 l 2.72,0 0,14 -2.72,0 c -0.56,0 -1.68,1e-5 -1.68,1.24 0,1.2 1.16,1.2 1.68,1.2 l 8.2,0 c 0.52,0 1.68,0 1.68,-1.2"
         id="path3839"
         inkscape:connector-curvature="0" />
      <path
         d="m 460.29831,381.2342 c 0,-1.19999 -1.16,-1.2 -1.76,-1.2 l -2.68,0 c -0.64,0 -1.76,10e-6 -1.76,1.24 0,0.2 0,1.2 1.44,1.2 l -4.52,13.64 -4.56,-13.6 c 0.87999,0 1.44,-0.56 1.44,-1.24 0,-1.23999 -1.12,-1.24 -1.76,-1.24 l -2.68,0 c -0.6,0 -1.76,10e-6 -1.76,1.2 0,1.24 1.08,1.24 1.84,1.24 l 4.56,13.52 0.68,1.96 c 0.4,1.2 1.4,1.2 2.2,1.2 1.11999,0 1.84,0 2.36,-1.52 l 5.12,-15.16 c 0.76,0 1.84,0 1.84,-1.24"
         id="path3841"
         inkscape:connector-curvature="0" />
      <path
         d="m 474.95393,397.7142 c 0,-1.23999 -1.08,-1.24 -1.88,-1.24 l -4.8,-15.32 c -0.28,-0.91999 -0.56,-1.48 -2.12,-1.48 l -0.28,0 c -1.52,0 -1.8,0.52001 -2.12,1.48 l -4.8,15.32 c -0.8,0 -1.88,1e-5 -1.88,1.24 0,1.2 1.16,1.2 1.68,1.2 l 2.92,0 c 0.56,0 1.68,0 1.68,-1.24 0,-1.19999 -1.24,-1.2 -1.48,-1.2 l 0.56,-1.88 7.16,0 0.56,1.84 c -1.16,0 -1.48,0.76 -1.48,1.24 0,1.24 1.12,1.24 1.68,1.24 l 2.92,0 c 0.52,0 1.68,0 1.68,-1.2 m -6.12,-5.56 -5.64,0 2.84,-9.32 2.8,9.32"
         id="path3843"
         inkscape:connector-curvature="0" />
      <path
         d="m 491.25955,383.6742 0,-1.96 c 0,-1.31999 -0.32001,-1.68 -1.68,-1.68 l -14.92,0 c -1.32,0 -1.68,0.32001 -1.68,1.68 l 0,1.96 c 0,0.68 0,1.68 1.36,1.68 1.39999,0 1.4,-0.96 1.4,-1.68 l 0,-1.2 5,0 0,14 -1.04,0 c -0.56,0 -1.68,1e-5 -1.68,1.2 0,1.24 1.08,1.24 1.68,1.24 l 4.84,0 c 0.56,0 1.68,0 1.68,-1.2 0,-1.23999 -1.08,-1.24 -1.68,-1.24 l -1.04,0 0,-14 5,0 0,1.2 c 0,0.68 0,1.68 1.36,1.68 1.39999,0 1.4,-0.96 1.4,-1.68"
         id="path3845"
         inkscape:connector-curvature="0" />
      <path
         d="m 504.91517,397.7142 c 0,-1.23999 -1.12,-1.24 -1.68,-1.24 l -2.72,0 0,-14 2.72,0 c 0.52,0 1.68,0 1.68,-1.2 0,-1.23999 -1.12,-1.24 -1.68,-1.24 l -8.2,0 c -0.56,0 -1.68,10e-6 -1.68,1.24 0,1.2 1.16,1.2 1.68,1.2 l 2.72,0 0,14 -2.72,0 c -0.56,0 -1.68,1e-5 -1.68,1.24 0,1.2 1.16,1.2 1.68,1.2 l 8.2,0 c 0.52,0 1.68,0 1.68,-1.2"
         id="path3847"
         inkscape:connector-curvature="0" />
      <path
         d="m 522.6108,397.2342 0,-2.56 c 0,-0.68 -1e-5,-1.68 -1.36,-1.68 -1.4,0 -1.4,0.96 -1.4,1.68 l 0,1.8 -10.08,0 12.24,-13.84 c 0.44,-0.48 0.44,-0.8 0.44,-1.2 0,-1.39999 -0.96,-1.4 -1.68,-1.4 l -12.76,0 c -1.32,0 -1.68,0.32001 -1.68,1.68 l 0,1.96 c 0,0.68 0,1.68 1.36,1.68 1.39999,0 1.4,-0.96 1.4,-1.68 l 0,-1.2 9.44,0 -12.24,13.84 c -0.44,0.48 -0.44,0.8 -0.44,1.2 0,1.4 0.96,1.4 1.68,1.4 l 13.4,0 c 1.31999,0 1.68,-0.32 1.68,-1.68"
         id="path3849"
         inkscape:connector-curvature="0" />
      <path
         d="m 542.46642,397.2342 0,-2.44 c 0,-0.68 0,-1.68 -1.36,-1.68 -1.4,0 -1.4,0.96 -1.4,1.68 l 0,1.68 -10.2,0 0,-6.12 4.96,0 c 0,0.76 0,1.72 1.4,1.72 1.36,0 1.36,-1 1.36,-1.68 l 0,-2.52 c 0,-0.68 0,-1.68 -1.36,-1.68 -1.4,0 -1.4,0.96 -1.4,1.72 l -4.96,0 0,-5.44 9.36,0 0,1.2 c 0,0.68 0,1.68 1.36,1.68 1.4,0 1.4,-0.96 1.4,-1.68 l 0,-1.96 c 0,-1.31999 -0.32,-1.68 -1.68,-1.68 l -13.6,0 c -0.56,0 -1.68,10e-6 -1.68,1.2 0,1.24 0.96,1.24 2.08,1.24 l 0,14 c -1.12,0 -2.08,1e-5 -2.08,1.24 0,1.2 1.12,1.2 1.68,1.2 l 14.44,0 c 1.32,0 1.68,-0.32 1.68,-1.68"
         id="path3851"
         inkscape:connector-curvature="0" />
      <path
         d="m 562.24205,395.7542 c 0,-0.72 -0.40001,-1.28 -1.4,-1.28 -0.8,0 -1.32,0.4 -1.36,1.2 -0.04,0.76 -0.36,1.12 -0.72,1.12 -1,0 -1,-1.32 -1,-2.68 0,-2.03999 -1e-5,-3.32 -1.72,-4.6 0.68,-0.4 2.76,-1.84 2.76,-4.16 0,-2.67999 -2.92001,-5.32 -7.48,-5.32 l -6.2,0 c -0.56,0 -1.68,10e-6 -1.68,1.2 0,1.24 1,1.24 1.92,1.24 l 0,14 c -0.92,0 -1.92,1e-5 -1.92,1.24 0,1.2 1.12,1.2 1.68,1.2 l 3.24,0 c 0.56,0 1.68,0 1.68,-1.2 0,-1.23999 -1.00001,-1.24 -1.92,-1.24 l 0,-5.8 3.04,0 c 3.83999,0 3.84,1.8 3.84,2.56 l 0,1.56 c 0,3.76 2.56,4.44 3.76,4.44 2.23999,0 3.48,-1.92 3.48,-3.48 m -6.2,-10.4 c 0,1.44 -1.92001,2.88 -5.08,2.88 l -2.84,0 0,-5.76 2.84,0 c 3.15999,0 5.08,1.44001 5.08,2.88"
         id="path3853"
         inkscape:connector-curvature="0" />
    </g>
    <path
       style="fill:#000000;stroke:none;stroke-width:0.29999999999999999;stroke-linecap:butt;stroke-linejoin:miter;stroke-opacity:1;stroke-miterlimit:4;stroke-dasharray:none;fill-opacity:1"
       d="M 141.03125 93.75 C 140.1987 93.7373 139.5 94.90625 139.5 94.90625 L 139.5 139.8125 L 134.84375 139.8125 C 134.84375 139.8125 132.65625 139.80879 132.65625 144.375 C 132.65625 149.0142 134.84375 149.0625 134.84375 149.0625 L 147.59375 149.0625 C 147.59375 149.0625 149.65625 149.05059 149.65625 144.375 C 149.65625 139.81362 147.125 139.8125 147.125 139.8125 L 142.59375 139.8125 L 142.59375 107.90625 L 153.5625 107.8125 L 153.5625 98 L 142.59375 97.90625 L 142.59375 94.90625 C 142.59375 94.90625 141.84375 93.762391 141.03125 93.75 z M 134.84375 141.53125 L 147.34375 141.53125 L 147.25 147.09375 L 134.84375 147.09375 L 134.84375 141.53125 z "
       id="path2989" />
    <path
       style="fill:#ff6600;fill-opacity:1;stroke:none"
       d="m 383.79129,358.65486 0,43.98657 -5.31,-1e-4 c 0,0 -2.1875,-0.004 -2.1875,4.5625 0,4.6392 2.1875,4.6875 2.1875,4.6875 l 12.75,0 c 0,0 2.0625,-0.0119 2.0625,-4.6875 0,-4.56138 -2.53125,-4.5625 -2.53125,-4.5625 l -4.53125,0 0,-31.90625 12.96875,-0.0937 0,-2.34375 -8.6875,0 0,-1.5 8.6875,0 0,-2.25 -11.3125,0 0,-1.69938 11.3125,0 0,-2.01937 -12.96875,-0.0937 0,-2.0122 c -0.98736,-0.9625 -1.90126,-2.01414 -2.44,-0.0681 z m -5.31,45.70524 12.5,0 c 0,0 0.50998,-0.0354 0.46403,2.78125 -0.046,2.81662 -0.55783,3.25812 -0.55783,3.25812 l -12.40625,0 c 0,0 -0.58579,-0.53977 -0.57908,-3.29218 0.007,-2.75241 0.57903,-2.74719 0.57903,-2.74719 z"
       id="path2989-2"
       inkscape:connector-curvature="0"
       sodipodi:nodetypes="cccsccsccccccccccccccccccczcczcc" />
    <path
       inkscape:connector-curvature="0"
       d="m 386.19723,359.02954 c 0,-0.6 -10e-6,-1.64 -1.2,-1.64 -1.24,0 -1.24,1.04 -1.24,1.64"
       style="font-size:40px;font-style:normal;font-variant:normal;font-weight:normal;font-stretch:normal;text-align:start;line-height:125%;letter-spacing:0px;word-spacing:0px;writing-mode:lr-tb;text-anchor:start;fill:#ff6600;fill-opacity:1;stroke:none;font-family:LMMonoCaps10;-inkscape-font-specification:LMMonoCaps10"
       id="path3835-2"
       sodipodi:nodetypes="csc"
       inkscape:transform-center-x="-5.4499273"
       inkscape:transform-center-y="-2.5887155" />
    <rect
       style="fill:#ffffff;fill-opacity:1;stroke:none"
       id="rect3873"
       width="187.30402"
       height="0.63281071"
       x="388.22495"
       y="394.26001" />
    <rect
       y="391.53342"
       x="389.35312"
       height="0.71262306"
       width="187.30402"
       id="rect3875"
       style="fill:#ffffff;fill-opacity:1;stroke:none" />
    <rect
       style="fill:#ffffff;fill-opacity:1;stroke:none"
       id="rect3877"
       width="187.30402"
       height="0.71262306"
       x="390.50922"
       y="388.98038" />
  </g>
</svg>
